<?xml version="1.0" standalone="no"?>
<!DOCTYPE svg PUBLIC "-//W3C//DTD SVG 20010904//EN"
 "http://www.w3.org/TR/2001/REC-SVG-20010904/DTD/svg10.dtd">
<svg version="1.0" xmlns="http://www.w3.org/2000/svg"
 width="475.000000pt" height="155.000000pt" viewBox="0 0 475.000000 155.000000"
 preserveAspectRatio="xMidYMid meet">

<g transform="translate(0.000000,155.000000) scale(0.100000,-0.100000)"
fill="#000000" stroke="none">
<path d="M1437 868 c-16 -12 -17 -35 -15 -283 l3 -270 94 -3 c67 -2 97 1 102
10 4 7 8 128 9 269 0 208 -2 260 -13 271 -19 19 -156 23 -180 6z"/>
<path d="M1786 864 c-14 -13 -16 -52 -16 -269 0 -139 3 -260 6 -269 5 -13 23
-16 94 -16 103 0 100 -3 100 111 l0 79 213 0 c116 0 218 4 225 9 9 5 12 25 10
62 l-3 54 -220 5 -220 5 -3 52 -3 53 233 2 233 3 3 59 c2 41 -1 62 -10 67 -7
5 -151 9 -320 9 -265 0 -309 -2 -322 -16z"/>
<path d="M2797 872 c-9 -4 -34 -34 -54 -67 -78 -129 -273 -464 -279 -479 -5
-14 7 -16 99 -16 l105 0 26 45 27 45 209 0 209 0 31 -45 31 -45 99 0 c62 0
100 4 100 10 0 10 -55 107 -243 428 -33 57 -69 110 -81 118 -15 10 -51 14
-141 13 -66 0 -128 -4 -138 -7z m187 -184 c40 -63 76 -133 76 -148 0 -6 -47
-10 -130 -10 -71 0 -130 2 -130 5 0 9 29 64 72 138 50 84 66 86 112 15z"/>
<path d="M3507 866 c-15 -16 -17 -45 -17 -271 0 -139 3 -260 6 -269 5 -14 44
-16 333 -16 365 0 409 6 454 60 14 16 30 52 36 80 14 66 14 239 0 295 -14 55
-57 99 -111 114 -26 7 -170 14 -363 18 -295 5 -322 4 -338 -11z m613 -163 c19
-25 21 -38 18 -120 -4 -133 6 -127 -240 -131 -159 -3 -203 -1 -209 10 -10 15
-12 252 -2 261 3 4 98 7 209 7 l203 0 21 -27z"/>
<path d="M4472 864 c-67 -47 -34 -144 49 -144 28 0 69 44 69 74 0 38 -10 55
-41 71 -36 19 -49 19 -77 -1z m92 -26 c9 -12 16 -31 16 -41 0 -24 -44 -67 -70
-67 -49 0 -80 79 -44 114 24 24 80 20 98 -6z"/>
<path d="M4480 800 c0 -22 5 -40 10 -40 6 0 10 7 10 15 0 20 10 19 27 -2 13
-17 14 -16 10 4 -3 13 0 26 5 30 14 8 -19 33 -44 33 -14 0 -18 -8 -18 -40z
m41 7 c-13 -13 -26 -3 -16 12 3 6 11 8 17 5 6 -4 6 -10 -1 -17z"/>
<path d="M1617 223 c-4 -3 -7 -14 -7 -24 0 -9 -6 -20 -12 -23 -10 -5 -10 -7 0
-12 7 -3 12 -24 12 -50 0 -32 4 -44 15 -44 11 0 15 12 15 45 0 33 4 45 15 45
8 0 15 5 15 10 0 6 -7 10 -15 10 -8 0 -15 7 -15 15 0 8 7 15 15 15 8 0 15 5
15 10 0 11 -43 14 -53 3z"/>
<path d="M3140 150 c0 -64 3 -80 15 -80 11 0 15 12 15 46 0 38 3 45 18 42 12
-2 18 -15 20 -46 4 -57 32 -60 32 -3 0 57 -8 71 -41 71 -24 0 -29 4 -29 25 0
16 -6 25 -15 25 -12 0 -15 -16 -15 -80z"/>
<path d="M3510 150 c0 -64 3 -80 15 -80 12 0 15 16 15 80 0 64 -3 80 -15 80
-12 0 -15 -16 -15 -80z"/>
<path d="M4250 202 c0 -26 -3 -28 -31 -24 -36 5 -49 -8 -49 -53 0 -45 11 -54
63 -53 l47 1 0 78 c0 64 -3 79 -15 79 -10 0 -15 -10 -15 -28z m-2 -74 c-2 -25
-8 -33 -23 -33 -20 0 -31 25 -21 51 3 8 15 14 26 14 18 0 21 -5 18 -32z"/>
<path d="M1420 145 c0 -60 3 -75 15 -75 12 0 15 15 15 75 0 60 -3 75 -15 75
-12 0 -15 -15 -15 -75z"/>
<path d="M2280 205 c0 -9 6 -12 15 -9 8 4 15 10 15 15 0 5 -7 9 -15 9 -8 0
-15 -7 -15 -15z"/>
<path d="M2644 205 c-4 -8 -3 -22 0 -31 4 -9 1 -22 -5 -30 -6 -7 -9 -25 -7
-41 3 -26 6 -28 57 -31 30 -2 59 2 64 7 8 8 8 11 0 11 -8 0 -10 12 -6 35 4 28
2 35 -11 35 -9 0 -16 -8 -16 -17 -1 -14 -6 -12 -25 10 -32 36 -31 47 0 47 14
0 25 5 25 10 0 16 -70 12 -76 -5z m56 -107 c0 -4 -9 -8 -20 -8 -15 0 -20 7
-20 27 0 25 0 26 20 8 11 -10 20 -22 20 -27z"/>
<path d="M2810 205 c0 -8 9 -15 20 -15 18 0 20 -7 20 -60 0 -47 3 -60 15 -60
12 0 15 13 15 60 0 53 2 60 20 60 11 0 20 7 20 15 0 12 -13 15 -55 15 -42 0
-55 -3 -55 -15z"/>
<path d="M3980 145 l0 -75 50 0 c37 0 50 4 50 14 0 9 -12 16 -32 18 l-32 3 3
58 c2 52 1 57 -18 57 -19 0 -21 -6 -21 -75z"/>
<path d="M2200 196 c0 -8 -6 -17 -12 -19 -10 -4 -10 -8 -1 -14 6 -4 13 -26 15
-48 3 -35 6 -40 31 -43 15 -2 27 1 27 7 0 6 -7 11 -15 11 -10 0 -15 11 -15 35
0 24 5 35 15 35 8 0 15 5 15 10 0 6 -7 10 -15 10 -8 0 -15 7 -15 15 0 8 -7 15
-15 15 -8 0 -15 -6 -15 -14z"/>
<path d="M4100 196 c0 -8 -6 -17 -12 -19 -10 -4 -10 -8 -1 -14 6 -4 13 -26 15
-48 3 -35 6 -40 31 -43 15 -2 27 1 27 7 0 6 -7 11 -15 11 -10 0 -15 11 -15 35
0 24 5 35 15 35 8 0 15 5 15 10 0 6 -7 10 -15 10 -8 0 -15 7 -15 15 0 8 -7 15
-15 15 -8 0 -15 -6 -15 -14z"/>
<path d="M1480 125 c0 -42 3 -55 15 -55 11 0 15 12 15 46 0 37 3 45 17 42 12
-2 17 -14 17 -42 1 -39 25 -65 27 -29 6 89 4 93 -46 93 l-45 0 0 -55z"/>
<path d="M1686 165 c-9 -23 -7 -68 3 -83 5 -8 23 -12 47 -10 l39 3 0 50 0 50
-41 3 c-31 2 -43 -1 -48 -13z m64 -40 c0 -28 -4 -35 -20 -35 -16 0 -20 7 -20
35 0 28 4 35 20 35 16 0 20 -7 20 -35z"/>
<path d="M1810 125 c0 -42 3 -55 15 -55 11 0 15 11 15 40 0 27 5 43 15 46 25
10 17 24 -15 24 -30 0 -30 -1 -30 -55z"/>
<path d="M1890 125 c0 -42 3 -55 15 -55 11 0 15 12 15 45 0 33 4 45 15 45 11
0 15 -12 15 -45 0 -33 4 -45 15 -45 11 0 15 12 15 45 0 38 3 45 20 45 17 0 20
-7 20 -45 0 -34 4 -45 16 -45 12 0 14 10 12 53 l-3 52 -77 3 -78 3 0 -56z"/>
<path d="M2080 170 c0 -5 11 -10 25 -10 34 0 32 -18 -2 -22 -23 -2 -29 -8 -31
-35 -3 -33 -3 -33 42 -33 l46 0 0 55 0 55 -40 0 c-22 0 -40 -4 -40 -10z m50
-65 c0 -8 -7 -15 -15 -15 -8 0 -15 7 -15 15 0 8 7 15 15 15 8 0 15 -7 15 -15z"/>
<path d="M2280 125 c0 -42 3 -55 15 -55 12 0 15 13 15 55 0 42 -3 55 -15 55
-12 0 -15 -13 -15 -55z"/>
<path d="M2342 168 c-17 -17 -15 -73 2 -87 8 -7 30 -11 48 -9 25 2 35 9 42 30
15 43 -6 78 -47 78 -18 0 -38 -5 -45 -12z m58 -43 c0 -28 -4 -35 -20 -35 -16
0 -20 7 -20 35 0 28 4 35 20 35 16 0 20 -7 20 -35z"/>
<path d="M2460 125 c0 -42 3 -55 15 -55 11 0 15 12 15 45 0 38 3 45 20 45 17
0 20 -7 20 -45 0 -33 4 -45 15 -45 11 0 15 11 15 39 0 63 -7 71 -56 71 l-44 0
0 -55z"/>
<path d="M2924 167 c-3 -8 -4 -32 -2 -53 3 -38 4 -39 46 -42 25 -2 42 1 42 7
0 6 -13 11 -30 11 -20 0 -30 5 -30 15 0 10 10 15 31 15 27 0 30 3 27 28 -3 23
-8 27 -41 30 -25 2 -39 -1 -43 -11z m56 -17 c0 -5 -7 -10 -15 -10 -8 0 -15 5
-15 10 0 6 7 10 15 10 8 0 15 -4 15 -10z"/>
<path d="M3042 168 c-7 -7 -12 -26 -12 -43 0 -17 5 -36 12 -43 14 -14 78 -16
78 -2 0 6 -11 10 -25 10 -24 0 -27 4 -27 35 0 31 3 35 27 35 14 0 25 5 25 10
0 14 -64 12 -78 -2z"/>
<path d="M3260 126 c0 -43 3 -56 15 -56 11 0 15 12 15 45 0 38 3 45 20 45 17
0 20 -7 20 -45 0 -34 4 -45 16 -45 12 0 14 10 12 53 l-3 52 -47 3 -48 3 0 -55z"/>
<path d="M3388 155 c-19 -41 0 -79 40 -83 43 -4 62 12 62 52 0 41 -16 56 -57
56 -26 0 -36 -6 -45 -25z m70 -27 c-2 -25 -8 -33 -22 -33 -11 0 -20 8 -22 20
-5 31 3 45 26 45 18 0 21 -5 18 -32z"/>
<path d="M3574 167 c-3 -8 -4 -32 -2 -53 3 -37 5 -39 39 -42 45 -4 61 15 57
65 -3 37 -4 38 -46 41 -30 2 -44 -1 -48 -11z m66 -42 c0 -28 -4 -35 -20 -35
-16 0 -20 7 -20 35 0 28 4 35 20 35 16 0 20 -7 20 -35z"/>
<path d="M3694 166 c-3 -8 -4 -31 -2 -52 3 -36 6 -39 36 -42 39 -4 38 -25 -1
-30 -36 -4 -34 -22 2 -22 57 0 61 6 61 86 l0 74 -45 0 c-30 0 -47 -5 -51 -14z
m66 -41 c0 -28 -4 -35 -20 -35 -16 0 -20 7 -20 35 0 28 4 35 20 35 16 0 20 -7
20 -35z"/>
<path d="M3830 125 c14 -41 17 -62 10 -81 -8 -21 -7 -25 6 -22 10 2 26 29 40
68 27 75 29 90 10 90 -8 0 -17 -16 -21 -37 l-8 -38 -12 35 c-6 19 -19 36 -28
38 -15 3 -14 -2 3 -53z"/>
<path d="M4300 85 c0 -8 7 -15 15 -15 8 0 15 7 15 15 0 8 -7 15 -15 15 -8 0
-15 -7 -15 -15z"/>
</g>
</svg>
